# xmcd
#
# Track frame offsets: 
#        182
#        19175
#        33332
#        50917
#        67922
#        85670
#        105047
#        120147
#        136600
#        152945
#        172490
#        191547
#        209680
#        224357
#
# Disc length: 3214 seconds
#
# Revision: 1
# Processed by: cddbd v1.5.2PL0 Copyright (c) Steve Scherf et al.
# Submitted via: ExactAudioCopyFreeDBPlugin 1.0
#
DISCID=bd0c8c0e
DTITLE=Sérgio Reis - Ventos Uivantes
DYEAR=1994
DGENRE=Country
TTITLE0=Ventos Uivantes
TTITLE1=Coice De Alazão
TTITLE2=Segura Peão
TTITLE3=Tocando Em Frente
TTITLE4=Cabocla Tereza
TTITLE5=Viola Calada
TTITLE6=Vanerão Do Coroa
TTITLE7=Passarim Cantador
TTITLE8=Guantanamera
TTITLE9=Voce Virou Miragem
TTITLE10=Liquida-se Um Coração
TTITLE11=Bicho Do Mato
TTITLE12=Doida Ela Não É Não
TTITLE13=Forró No Museu Da Cera
EXTD=
EXTT0=
EXTT1=
EXTT2=
EXTT3=
EXTT4=
EXTT5=
EXTT6=
EXTT7=
EXTT8=
EXTT9=
EXTT10=
EXTT11=
EXTT12=
EXTT13=
PLAYORDER=
